<?xml version="1.0" standalone="no"?>
<!DOCTYPE svg PUBLIC "-//W3C//DTD SVG 20010904//EN"
 "http://www.w3.org/TR/2001/REC-SVG-20010904/DTD/svg10.dtd">
<svg version="1.0" xmlns="http://www.w3.org/2000/svg"
 width="500.000000pt" height="500.000000pt" viewBox="0 0 500.000000 500.000000"
 preserveAspectRatio="xMidYMid meet">
<metadata>
Created by potrace 1.11, written by Peter Selinger 2001-2013
</metadata>
<g transform="translate(0.000000,500.000000) scale(0.100000,-0.100000)"
fill="#000000" stroke="none">
<path d="M2747 3688 c-13 -18 -101 -139 -194 -268 -94 -129 -245 -338 -337
-465 -91 -126 -246 -341 -344 -477 -97 -136 -180 -247 -184 -247 -3 -1 -120
157 -260 350 -139 193 -260 360 -268 371 -14 18 -18 16 -70 -57 -30 -42 -59
-82 -65 -88 -5 -7 -26 -35 -45 -62 -18 -28 -64 -90 -100 -140 -37 -49 -203
-279 -370 -510 -167 -231 -350 -484 -407 -562 l-103 -143 61 -45 62 -45 50 72
c28 40 54 75 57 78 3 3 31 41 63 85 31 44 82 116 114 160 32 44 94 130 137
190 44 61 103 142 131 180 28 39 145 200 260 358 114 159 211 285 216 280 4
-4 60 -80 123 -168 63 -88 119 -164 123 -170 29 -35 193 -266 193 -271 0 -3
-93 -134 -207 -291 -257 -355 -266 -366 -331 -458 l-53 -75 685 0 c378 0 686
2 686 5 0 2 -77 111 -172 242 -95 131 -227 314 -295 407 l-122 170 22 30 c12
17 103 144 202 281 100 138 289 399 420 580 131 182 263 363 292 403 l54 73
18 -23 c10 -13 260 -358 556 -768 296 -410 561 -776 590 -815 28 -38 62 -85
74 -103 l24 -34 -24 -31 c-59 -80 -224 -308 -260 -359 l-40 -58 416 0 c330 0
415 3 409 12 -15 24 -232 326 -262 363 -4 6 -18 24 -30 42 l-22 32 86 120 c47
67 89 119 94 116 4 -2 65 -85 136 -182 137 -190 206 -285 291 -400 l53 -73 59
43 c46 33 57 46 50 59 -10 20 -566 787 -583 806 -10 10 -18 5 -42 -29 -16 -23
-38 -54 -49 -70 -11 -15 -58 -80 -104 -144 -46 -64 -85 -115 -86 -113 -2 2
-91 125 -199 273 -107 149 -224 311 -260 360 -36 50 -163 225 -282 390 -120
165 -306 423 -415 573 l-198 272 -24 -32z m-854 -2008 l185 -255 -386 -3
c-212 -1 -387 0 -389 2 -4 3 105 162 132 193 5 6 64 86 129 177 97 134 122
164 133 154 7 -7 95 -128 196 -268z m2301 -182 l57 -78 -121 0 c-67 0 -120 4
-118 8 12 29 113 161 119 155 3 -5 32 -43 63 -85z"/>
</g>
</svg>
